<?xml version="1.0" encoding="UTF-8"?>
<svg id="Layer_2" data-name="Layer 2" xmlns="http://www.w3.org/2000/svg" viewBox="0 0 220 55">
  <defs>
    <style>
      .cls-1 {
        fill: #f27021;
      }

      .cls-1, .cls-2, .cls-3, .cls-4 {
        stroke-width: 0px;
      }

      .cls-2 {
        fill: none;
      }

      .cls-3 {
        fill: #a0a0a0;
      }

      .cls-4 {
        fill: #231f20;
      }
    </style>
  </defs>
  <g id="Layer_2-2" data-name="Layer 2">
    <g>
      <rect class="cls-2" width="220" height="55"/>
      <g>
        <g>
          <path class="cls-3" d="M170.89,33.71c-.55-.59-.82-1.43-.82-2.5v-7.41c0-1.08.27-1.91.82-2.5.55-.59,1.34-.89,2.38-.89s1.83.3,2.38.89c.55.59.82,1.43.82,2.5v1.46h-2.05v-1.6c0-.85-.36-1.28-1.08-1.28s-1.08.43-1.08,1.28v7.71c0,.84.36,1.26,1.08,1.26s1.08-.42,1.08-1.26v-2.11h2.05v1.95c0,1.08-.27,1.91-.82,2.5-.55.59-1.34.89-2.38.89s-1.83-.3-2.38-.89Z"/>
          <path class="cls-3" d="M180.17,33.69c-.57-.6-.85-1.46-.85-2.56v-7.26c0-1.1.28-1.96.85-2.56.57-.6,1.38-.91,2.45-.91s1.88.3,2.45.91c.57.6.85,1.46.85,2.56v7.26c0,1.1-.28,1.96-.85,2.56-.57.6-1.38.91-2.45.91s-1.88-.3-2.45-.91ZM183.74,31.27v-7.53c0-.91-.37-1.36-1.12-1.36s-1.12.45-1.12,1.36v7.53c0,.91.37,1.36,1.12,1.36s1.12-.45,1.12-1.36Z"/>
          <path class="cls-3" d="M188.78,20.6h3.21c1.12,0,1.93.26,2.45.78.51.52.77,1.32.77,2.4v.85c0,1.43-.47,2.34-1.42,2.72v.04c.53.16.9.48,1.11.97.22.49.33,1.14.33,1.95v2.43c0,.39.01.71.04.96.03.24.09.48.2.72h-2.21c-.08-.22-.13-.43-.16-.63-.03-.2-.04-.55-.04-1.06v-2.52c0-.63-.1-1.07-.31-1.32-.2-.25-.56-.37-1.05-.37h-.75v5.92h-2.17v-13.8ZM191.73,26.51c.43,0,.76-.11.98-.34.22-.22.33-.6.33-1.12v-1.06c0-.5-.09-.86-.27-1.08-.18-.22-.46-.34-.84-.34h-.99v3.94h.79Z"/>
          <path class="cls-3" d="M198.33,20.6h3.19c1.08,0,1.89.29,2.43.87.54.58.81,1.43.81,2.54v1.36c0,1.12-.27,1.97-.81,2.54-.54.58-1.35.87-2.43.87h-1.03v5.62h-2.17v-13.8ZM201.52,26.81c.35,0,.62-.1.8-.3s.27-.53.27-1.01v-1.64c0-.47-.09-.81-.27-1.01-.18-.2-.44-.3-.8-.3h-1.03v4.24h1.03Z"/>
        </g>
        <rect class="cls-4" x="159" y="12.91" width="1.85" height="29.19"/>
        <g>
          <path class="cls-4" d="M61.48,16.79h8.91v3.06h-5.54v5.97h4.35v3.06h-4.35v9.34h-3.37v-21.43Z"/>
          <path class="cls-4" d="M73.49,16.79h3.37v18.37h5.54v3.06h-8.91v-21.43Z"/>
          <path class="cls-4" d="M88.99,16.79h4.56l3.49,21.43h-3.37l-.61-4.26v.06h-3.83l-.61,4.19h-3.12l3.49-21.43ZM92.66,31.11l-1.5-10.59h-.06l-1.47,10.59h3.03Z"/>
          <path class="cls-4" d="M100.14,16.79h4.99c1.73,0,3,.4,3.8,1.21.8.81,1.19,2.05,1.19,3.72v1.32c0,2.22-.73,3.63-2.2,4.22v.06c.82.24,1.39.75,1.73,1.5.34.76.51,1.77.51,3.03v3.77c0,.61.02,1.11.06,1.48.04.38.14.75.31,1.12h-3.43c-.12-.35-.2-.67-.24-.98-.04-.31-.06-.86-.06-1.65v-3.92c0-.98-.16-1.66-.47-2.05-.32-.39-.86-.58-1.64-.58h-1.16v9.18h-3.37v-21.43ZM104.73,25.97c.67,0,1.18-.17,1.52-.52.34-.35.51-.93.51-1.75v-1.65c0-.78-.14-1.34-.41-1.68-.28-.35-.71-.52-1.3-.52h-1.53v6.12h1.22Z"/>
          <path class="cls-4" d="M113.62,16.79h9.18v3.06h-5.82v5.66h4.62v3.06h-4.62v6.58h5.82v3.06h-9.18v-21.43Z"/>
          <path class="cls-4" d="M127.22,37.11c-.88-.94-1.32-2.27-1.32-3.98v-11.27c0-1.71.44-3.04,1.32-3.98.88-.94,2.14-1.41,3.8-1.41s2.92.47,3.8,1.41c.88.94,1.32,2.27,1.32,3.98v11.27c0,1.71-.44,3.04-1.32,3.98-.88.94-2.14,1.41-3.8,1.41s-2.92-.47-3.8-1.41ZM132.76,33.35v-11.69c0-1.41-.58-2.11-1.74-2.11s-1.75.7-1.75,2.11v11.69c0,1.41.58,2.11,1.75,2.11s1.74-.7,1.74-2.11Z"/>
          <path class="cls-4" d="M139.23,16.79h4.22l3.28,12.83h.06v-12.83h3v21.43h-3.46l-4.04-15.64h-.06v15.64h-3v-21.43Z"/>
        </g>
        <g>
          <g>
            <polygon class="cls-1" points="28.23 26.03 20.15 26.03 18.46 23.88 27.49 23.88 28.23 26.03"/>
            <polygon class="cls-1" points="29.52 29.83 23.13 29.83 21.44 27.68 28.79 27.68 29.52 29.83"/>
            <polygon class="cls-1" points="30.82 33.62 26.12 33.62 24.43 31.47 30.09 31.47 30.82 33.62"/>
          </g>
          <g>
            <circle class="cls-1" cx="36.08" cy="36.75" r="1.77" transform="translate(-6 66.45) rotate(-80.74)"/>
            <circle class="cls-1" cx="44.91" cy="36.75" r="1.77"/>
            <path class="cls-1" d="M33.56,22.71l3.87,11.37h-4.32l-4.76-13.94c-.13-.39-.5-.65-.91-.65h-2.4c-.85,0-1.54-.71-1.5-1.58.04-.81.73-1.43,1.54-1.43h5.48c.46,0,.86.3,1,.73l.71,2.27h14.52l-1.05,3.22h-12.18Z"/>
            <polygon class="cls-1" points="52.95 19.49 48.1 34.08 39.86 34.08 38.68 30.62 45.72 30.62 46.45 28.32 37.9 28.32 36.77 25.01 47.41 25.01 49.21 19.49 52.95 19.49"/>
          </g>
        </g>
      </g>
    </g>
  </g>
</svg>